# xmcd CD database file
# Copyright (C) 1997 Ti Kan
#
# Track frame offsets:
#  150
#  18982
#  39015
#  66257
#  83580
#
# Disc length: 1589 seconds
#
# Revision: 1
# Processed by: cddbd v1.4b41PL1 Copyright (c) Steve Scherf et al.
# Submitted via: CDWizzard Release:4.32
#
DISCID=2d063305
DTITLE=Michael Jackson - History - Ghosts Maxi CD2
DYEAR=1900
DGENRE=
TTITLE0=History (Lesson Edit)
TTITLE1=Ghosts (Mousse T Radio Rock)
TTITLE2=Ghosts (Mousse T Club Mix)
TTITLE3=Ghosts (Radio Edit)
TTITLE4=History (TM Historical Dub)
EXTD=
EXTT0=
EXTT1=
EXTT2=
EXTT3=
EXTT4=
PLAYORDER=
